<svg fill="none" height="30" viewBox="0 0 169 30" width="169" xmlns="http://www.w3.org/2000/svg"><g fill="#fff"><path d="m27.5156 11.25c1.3594 0 2.4844-1.125 2.4844-2.48437v-1.64063c0-1.125-.75-2.10937-1.7344-2.39062l-15.2812-4.593755c-.2344-.140625-.4688-.140625-.75-.140625h-6.00002c-1.35938 0-2.48438 1.125-2.48438 2.48438v6.23437c0 1.35935 1.125 2.48435 2.48438 2.48435h1.26562v8.7656h-5.01562c-1.35938.0469-2.48438 1.1719-2.48438 2.5313v5.0156c0 1.3594 1.125 2.4844 2.48438 2.4844h12.51562c1.3594 0 2.4844-1.125 2.4844-2.4844v-5.0156c0-1.3594-1.125-2.4844-2.4844-2.4844h-5.01563v-8.7656h13.73433v5.25c0 1.125.75 2.1094 1.875 2.3906 1.2657.375 2.0157 1.6407 1.875 2.8594-.1406.9844-.9843 1.875-2.0156 2.0156-.75.1407-1.5 0-2.1094-.5156-.5156-.5156-.8906-1.2656-.8906-2.0156 0-.2344 0-.6094.1407-.8906.2343-.6094-.1407-1.3594-.7501-1.6407-.6093-.2343-1.3593.1407-1.6406.75-.1406.6094-.2344 1.125-.2344 1.7344 0 1.5.6094 2.8594 1.7344 3.8906.8906.75 2.0157 1.125 3.2344 1.125.2344 0 .6094 0 .8906-.1406 2.0156-.375 3.6094-2.0156 3.9844-3.9844.5156-2.625-1.125-5.1094-3.6094-5.625v-5.2031zm-12.5156 16.2656h-12.51562v-5.0156h12.51562zm12.5156-18.74997h-13.7812v-5.76563l13.7343 4.26562v1.50001zm-21.28122-6.28125h5.01562v6.23437h-5.01562z"/><path d="m47.648 6.2c2.448 0 4.384.616 5.808 1.848 1.424 1.216 2.136 2.96 2.136 5.232h-5.064c0-.96-.256-1.72-.768-2.28-.496-.56-1.208-.84-2.136-.84-1.072 0-1.864.336-2.376 1.008-.496.672-.744 1.608-.744 2.808v1.536c0 1.184.248 2.12.744 2.808.512.672 1.288 1.008 2.328 1.008 1.024 0 1.8-.264 2.328-.792s.792-1.272.792-2.232h4.896c0 2.256-.696 3.984-2.088 5.184-1.376 1.2-3.328 1.8-5.856 1.8-2.816 0-4.952-.72-6.408-2.16-1.44-1.44-2.16-3.568-2.16-6.384s.72-4.944 2.16-6.384c1.456-1.44 3.592-2.16 6.408-2.16zm17.0237 3.84c2.224 0 3.968.568 5.232 1.704 1.28 1.12 1.92 2.76 1.92 4.92s-.64 3.808-1.92 4.944c-1.264 1.12-3.008 1.68-5.232 1.68s-3.968-.56-5.232-1.68-1.896-2.768-1.896-4.944.632-3.824 1.896-4.944 3.008-1.68 5.232-1.68zm0 3.24c-1.568 0-2.352.904-2.352 2.712v1.368c0 1.792.784 2.688 2.352 2.688 1.584 0 2.376-.896 2.376-2.688v-1.368c0-1.808-.792-2.712-2.376-2.712zm18.1918-3.24c1.472 0 2.576.408 3.312 1.224s1.104 1.992 1.104 3.528v8.208h-4.776v-7.632c0-.544-.144-.976-.432-1.296-.272-.336-.664-.504-1.176-.504-.592 0-1.072.192-1.44.576s-.552.856-.552 1.416v7.44h-4.776v-12.672h3.912l.312 1.92c.496-.672 1.144-1.208 1.944-1.608.816-.4 1.672-.6 2.568-.6zm13.2958 0c1.696 0 3.128.336 4.2957 1.008 1.184.656 1.776 1.68 1.776 3.072h-4.4397c0-.464-.208-.792-.624-.984-.288-.16-.648-.24-1.08-.24-1.152 0-1.728.272-1.728.816 0 .304.2.52.6.648s1.056.264 1.968.408c1.12.16 2.056.352 2.808.576.7517.208 1.4077.592 1.9677 1.152.56.544.84 1.312.84 2.304 0 1.616-.608 2.768-1.824 3.456-1.1997.688-2.7757 1.032-4.7277 1.032-1.12 0-2.176-.152-3.168-.456-.992-.32-1.8-.808-2.424-1.464s-.936-1.488-.936-2.496h4.44v.096c.016.544.24.928.672 1.152.448.208.92.312 1.416.312 1.328 0 1.992-.312 1.992-.936 0-.32-.208-.552-.624-.696s-1.096-.296-2.04-.456c-1.136-.192-2.072-.4-2.808-.624-.72-.224-1.352-.6-1.896-1.128-.544-.544-.816-1.296-.816-2.256 0-1.552.584-2.656 1.752-3.312 1.184-.656 2.72-.984 4.608-.984zm17.0957.288v3.24h-2.688v4.824c0 .576.096 1 .288 1.272.192.256.544.384 1.056.384h1.344v2.808c-.384.128-.88.232-1.488.312s-1.136.12-1.584.12c-1.408 0-2.496-.256-3.264-.768-.752-.512-1.128-1.384-1.128-2.616v-6.336h-1.776v-3.24h1.968l1.032-3.84h3.552v3.84zm9.92-.312c.368 0 .696.048.984.144.288.08.432.128.432.144v4.008h-1.536c-.992 0-1.712.256-2.16.768-.432.512-.648 1.272-.648 2.28v5.64h-4.776v-12.672h3.912l.312 1.92c.288-.736.744-1.288 1.368-1.656.624-.384 1.328-.576 2.112-.576zm12.949 12.984-.312-1.92c-.496.688-1.152 1.232-1.968 1.632-.8.384-1.648.576-2.544.576-1.472 0-2.576-.408-3.312-1.224s-1.104-1.992-1.104-3.528v-8.208h4.776v7.632c0 .544.136.984.408 1.32.288.32.688.48 1.2.48.592 0 1.072-.192 1.44-.576s.552-.856.552-1.416v-7.44h4.776v12.672zm13.368-12.96c2.08 0 3.76.448 5.04 1.344 1.296.88 1.944 2.232 1.944 4.056h-4.632c0-1.44-.784-2.16-2.352-2.16s-2.352.904-2.352 2.712v1.368c0 1.792.816 2.688 2.448 2.688s2.448-.736 2.448-2.208h4.44c0 1.84-.648 3.208-1.944 4.104-1.28.896-2.96 1.344-5.04 1.344-2.224 0-3.968-.56-5.232-1.68s-1.896-2.768-1.896-4.944.632-3.824 1.896-4.944 3.008-1.68 5.232-1.68zm17.904.288v3.24h-2.688v4.824c0 .576.096 1 .288 1.272.192.256.544.384 1.056.384h1.344v2.808c-.384.128-.88.232-1.488.312s-1.136.12-1.584.12c-1.408 0-2.496-.256-3.264-.768-.752-.512-1.128-1.384-1.128-2.616v-6.336h-1.776v-3.24h1.968l1.032-3.84h3.552v3.84z"/></g></svg>